<?xml version="1.0" encoding="UTF-8"?>
<!DOCTYPE svg PUBLIC "-//W3C//DTD SVG 1.1//EN" "http://www.w3.org/Graphics/SVG/1.1/DTD/svg11.dtd">
<!-- Creator: CorelDRAW 2021 (64-Bit Оценочная версия) -->
<svg xmlns="http://www.w3.org/2000/svg" xml:space="preserve" width="297mm" height="210mm" version="1.1" style="shape-rendering:geometricPrecision; text-rendering:geometricPrecision; image-rendering:optimizeQuality; fill-rule:evenodd; clip-rule:evenodd"
viewBox="0 0 29700 21000"
 xmlns:xlink="http://www.w3.org/1999/xlink"
 xmlns:xodm="http://www.corel.com/coreldraw/odm/2003">
 <defs>
  <style type="text/css">
   <![CDATA[
    .str0 {stroke:#2B2A29;stroke-width:20;stroke-miterlimit:22.9256}
    .fil3 {fill:#FFED00}
    .fil5 {fill:#FCE4DD}
    .fil9 {fill:#FBE1D9}
    .fil7 {fill:#FBDCD4}
    .fil2 {fill:#FAD7CF}
    .fil0 {fill:#E31E24}
    .fil4 {fill:#D58D15}
    .fil8 {fill:#CF8617}
    .fil1 {fill:#D08418}
    .fil6 {fill:#C98019}
   ]]>
  </style>
    <clipPath id="id0">
     <path d="M-3398.33 -3321.53l38480.37 1302.17 0 27465.05 -38480.37 -1302.17 0 -27465.05z"/>
    </clipPath>
    <clipPath id="id1">
     <path d="M7963.72 815.75l2463.08 0 0 2389.1 -2463.08 0 0 -2389.1z"/>
    </clipPath>
    <clipPath id="id2">
     <path d="M7831.58 6734.23l2462.56 0 0 2389.08 -2462.56 0 0 -2389.08z"/>
    </clipPath>
    <clipPath id="id3">
     <path d="M10169.73 2312.39l2409.82 0 0 2429.77 -2409.82 0 0 -2429.77z"/>
    </clipPath>
    <clipPath id="id4">
     <path d="M10259.17 4919.64l2409.82 0 0 2429.77 -2409.82 0 0 -2429.77z"/>
    </clipPath>
    <clipPath id="id5">
     <path d="M1476.87 1755l6799.26 0 0 6335.63 -6799.26 0 0 -6335.63z"/>
    </clipPath>
 </defs>
 <g id="Слой_x0020_1">
  <metadata id="CorelCorpID_0Corel-Layer"/>
  <g id="_2323465713936">
   <g style="clip-path:url(#id0)">
    <image x="-3398.33" y="-3321.53" width="38480.37" height="28767.22" xlink:href="china2_Images\china2_ImgID1.png"/>
   </g>
  </g>
  <g id="_2323465716528">
   <rect class="fil0 str0" x="-5.74" y="-28.02" width="29000" height="20000"/>
  </g>
  <g id="_2323465714608">
   <polygon class="fil1" points="8616.52,73.54 9138.13,532.52 9759.49,171.61 9459.16,813.89 9982.63,1270.85 9275.4,1208.82 8977.56,1852.15 8840.8,1171.53 8133.26,1112.16 8755.96,753.55 "/>
   <polygon class="fil2" points="7230.88,873.52 7752.49,1332.5 8373.85,971.59 8073.52,1613.87 8596.99,2070.83 7889.76,2008.8 7591.92,2652.13 7455.16,1971.51 6747.62,1912.14 7370.32,1553.53 "/>
  </g>
  <g id="_2323465714896">
   <g style="clip-path:url(#id1)">
    <image x="7963.72" y="815.75" width="2463.08" height="2389.1" xlink:href="china2_Images\china2_ImgID2.png"/>
   </g>
  </g>
  <polygon class="fil3 str0" points="7923.7,473.53 8445.31,932.51 9066.67,571.6 8766.34,1213.88 9289.81,1670.84 8582.58,1608.81 8284.74,2252.14 8147.98,1571.52 7440.44,1512.15 8063.14,1153.54 "/>
  <g id="_2323465710960">
   <polygon class="fil4" points="8670.63,6091.93 9190.85,6550.91 9813.3,6190 9511.03,6832.28 10033.11,7289.24 9326.08,7227.21 9026.29,7870.54 8891.59,7189.92 8184.22,7130.55 8808.01,6771.94 "/>
   <polygon class="fil5" points="7284.99,6891.91 7805.21,7350.89 8427.66,6989.98 8125.39,7632.26 8647.47,8089.22 7940.44,8027.19 7640.65,8670.52 7505.95,7989.9 6798.58,7930.53 7422.37,7571.92 "/>
  </g>
  <g id="_2323465712352">
   <g style="clip-path:url(#id2)">
    <image x="7831.58" y="6734.23" width="2462.56" height="2389.08" xlink:href="china2_Images\china2_ImgID3.png"/>
   </g>
  </g>
  <polygon class="fil3 str0" points="7977.81,6491.92 8498.03,6950.9 9120.48,6589.99 8818.21,7232.27 9340.29,7689.23 8633.26,7627.2 8333.47,8270.53 8198.77,7589.91 7491.4,7530.54 8115.19,7171.93 "/>
  <g id="_2323465710624">
   <polygon class="fil6" points="11106.98,1600.62 11539.59,2142.97 12215.26,1895.63 11806.05,2475.67 12240.85,3016.34 11555.33,2832.48 11148.38,3413.97 11133.92,2720.3 10447.61,2539.01 11124.19,2294.17 "/>
   <polygon class="fil7" points="9721.34,2400.6 10153.95,2942.95 10829.62,2695.61 10420.41,3275.65 10855.21,3816.32 10169.69,3632.46 9762.74,4213.95 9748.28,3520.28 9061.97,3338.99 9738.55,3094.15 "/>
  </g>
  <g id="_2323465709568">
   <g style="clip-path:url(#id3)">
    <image x="10169.73" y="2312.39" width="2409.82" height="2429.77" xlink:href="china2_Images\china2_ImgID4.png"/>
   </g>
  </g>
  <polygon class="fil3 str0" points="10414.16,2000.61 10846.77,2542.96 11522.44,2295.62 11113.23,2875.66 11548.03,3416.33 10862.51,3232.47 10455.56,3813.96 10441.1,3120.29 9754.79,2939 10431.37,2694.16 "/>
  <g id="_2323465704576">
   <polygon class="fil8" points="11252.51,4230.58 11685.12,4772.93 12360.79,4525.59 11951.58,5105.63 12386.38,5646.3 11700.86,5462.44 11293.91,6043.93 11279.45,5350.26 10593.14,5168.97 11269.72,4924.13 "/>
   <polygon class="fil9" points="9866.87,5030.56 10299.48,5572.91 10975.15,5325.57 10565.94,5905.61 11000.74,6446.28 10315.22,6262.42 9908.27,6843.91 9893.81,6150.24 9207.5,5968.95 9884.08,5724.11 "/>
  </g>
  <g id="_2323465703952">
   <g style="clip-path:url(#id4)">
    <image x="10259.17" y="4919.64" width="2409.82" height="2429.77" xlink:href="china2_Images\china2_ImgID5.png"/>
   </g>
  </g>
  <polygon class="fil3 str0" points="10559.69,4630.57 10992.3,5172.92 11667.97,4925.58 11258.76,5505.62 11693.56,6046.29 11008.04,5862.43 10601.09,6443.92 10586.63,5750.25 9900.32,5568.96 10576.9,5324.12 "/>
  <g id="_2323465762272">
   <g style="clip-path:url(#id5)">
    <image x="1476.87" y="1755" width="6799.26" height="6335.63" xlink:href="china2_Images\china2_ImgID6.png"/>
   </g>
  </g>
  <polygon class="fil3 str0" points="4097.74,1875.82 4717.34,3719.25 6734.34,3715.53 5100.28,4851.11 5727.25,6692.24 4097.74,5550.64 2468.23,6692.24 3095.2,4851.11 1461.14,3715.53 3478.14,3719.25 "/>
 </g>
</svg>
