<?xml version="1.0" encoding="UTF-8"?>
<!DOCTYPE svg PUBLIC "-//W3C//DTD SVG 1.1//EN" "http://www.w3.org/Graphics/SVG/1.1/DTD/svg11.dtd">
<!-- Creator: CorelDRAW 2021 (64-Bit Оценочная версия) -->
<svg xmlns="http://www.w3.org/2000/svg" xml:space="preserve" width="297mm" height="210mm" version="1.1" style="shape-rendering:geometricPrecision; text-rendering:geometricPrecision; image-rendering:optimizeQuality; fill-rule:evenodd; clip-rule:evenodd"
viewBox="0 0 29700 21000"
 xmlns:xlink="http://www.w3.org/1999/xlink"
 xmlns:xodm="http://www.corel.com/coreldraw/odm/2003">
 <defs>
  <style type="text/css">
   <![CDATA[
    .str0 {stroke:#2B2A29;stroke-width:20;stroke-miterlimit:22.9256}
    .fil3 {fill:#FFED00}
    .fil5 {fill:#FCE4DD}
    .fil9 {fill:#FBE1D9}
    .fil7 {fill:#FBDCD4}
    .fil2 {fill:#FAD7CF}
    .fil0 {fill:#E31E24}
    .fil4 {fill:#D58D15}
    .fil8 {fill:#CF8617}
    .fil1 {fill:#D08418}
    .fil6 {fill:#C98019}
   ]]>
  </style>
    <clipPath id="id0">
     <path d="M-3398.33 -3321.53l38480.37 1302.17 0 27465.05 -38480.37 -1302.17 0 -27465.05z"/>
    </clipPath>
    <clipPath id="id1">
     <path d="M7688.06 362.68l2463.08 0 0 2389.1 -2463.08 0 0 -2389.1z"/>
    </clipPath>
    <clipPath id="id2">
     <path d="M7555.92 6342.95l2462.56 0 0 2389.08 -2462.56 0 0 -2389.08z"/>
    </clipPath>
    <clipPath id="id3">
     <path d="M9891.68 1887.65l2409.82 0 0 2429.77 -2409.82 0 0 -2429.77z"/>
    </clipPath>
    <clipPath id="id4">
     <path d="M9981.12 4529.61l2409.82 0 0 2429.77 -2409.82 0 0 -2429.77z"/>
    </clipPath>
    <clipPath id="id5">
     <path d="M1054.15 1477.57l6799.26 0 0 6335.63 -6799.26 0 0 -6335.63z"/>
    </clipPath>
 </defs>
 <g id="Слой_x0020_1">
  <metadata id="CorelCorpID_0Corel-Layer"/>
  <g id="_2323469991728">
   <g style="clip-path:url(#id0)">
    <image x="-3398.33" y="-3321.53" width="38480.37" height="28767.22" xlink:href="china_Images\china_ImgID1.png"/>
   </g>
  </g>
  <g id="_2323469994080">
   <rect class="fil0 str0" x="-5.74" y="-28.02" width="29692.85" height="21106.97"/>
  </g>
  <g id="_2323469993072">
   <g style="clip-path:url(#id1)">
    <image x="7688.06" y="362.68" width="2463.08" height="2389.1" xlink:href="china_Images\china_ImgID2.png"/>
   </g>
  </g>
  <g id="_2323469992640">
   <polygon class="fil1" points="8616.52,873.53 9138.13,1332.51 9759.49,971.6 9459.16,1613.88 9982.63,2070.84 9275.4,2008.81 8977.56,2652.14 8840.8,1971.52 8133.26,1912.15 8755.96,1553.54 "/>
   <polygon class="fil2" points="7230.88,73.53 7752.49,532.51 8373.85,171.6 8073.52,813.88 8596.99,1270.84 7889.76,1208.81 7591.92,1852.14 7455.16,1171.52 6747.62,1112.15 7370.32,753.54 "/>
  </g>
  <polygon class="fil3 str0" points="7923.7,473.53 8445.31,932.51 9066.67,571.6 8766.34,1213.88 9289.81,1670.84 8582.58,1608.81 8284.74,2252.14 8147.98,1571.52 7440.44,1512.15 8063.14,1153.54 "/>
  <g id="_2323469989952">
   <g style="clip-path:url(#id2)">
    <image x="7555.92" y="6342.95" width="2462.56" height="2389.08" xlink:href="china_Images\china_ImgID3.png"/>
   </g>
  </g>
  <g id="_2323469989424">
   <polygon class="fil4" points="8670.63,6891.92 9190.85,7350.9 9813.3,6989.99 9511.03,7632.27 10033.11,8089.23 9326.08,8027.2 9026.29,8670.53 8891.59,7989.91 8184.22,7930.54 8808.01,7571.93 "/>
   <polygon class="fil5" points="7284.99,6091.92 7805.21,6550.9 8427.66,6189.99 8125.39,6832.27 8647.47,7289.23 7940.44,7227.2 7640.65,7870.53 7505.95,7189.91 6798.58,7130.54 7422.37,6771.93 "/>
  </g>
  <polygon class="fil3 str0" points="7977.81,6491.92 8498.03,6950.9 9120.48,6589.99 8818.21,7232.27 9340.29,7689.23 8633.26,7627.2 8333.47,8270.53 8198.77,7589.91 7491.4,7530.54 8115.19,7171.93 "/>
  <g id="_2323469989856">
   <g style="clip-path:url(#id3)">
    <image x="9891.68" y="1887.65" width="2409.82" height="2429.77" xlink:href="china_Images\china_ImgID4.png"/>
   </g>
  </g>
  <g id="_2323469990624">
   <polygon class="fil6" points="11106.98,2400.61 11539.59,2942.96 12215.26,2695.62 11806.05,3275.66 12240.85,3816.33 11555.33,3632.47 11148.38,4213.96 11133.92,3520.29 10447.61,3339 11124.19,3094.16 "/>
   <polygon class="fil7" points="9721.34,1600.61 10153.95,2142.96 10829.62,1895.62 10420.41,2475.66 10855.21,3016.33 10169.69,2832.47 9762.74,3413.96 9748.28,2720.29 9061.97,2539 9738.55,2294.16 "/>
  </g>
  <polygon class="fil3 str0" points="10414.16,2000.61 10846.77,2542.96 11522.44,2295.62 11113.23,2875.66 11548.03,3416.33 10862.51,3232.47 10455.56,3813.96 10441.1,3120.29 9754.79,2939 10431.37,2694.16 "/>
  <g id="_2323469987600">
   <g style="clip-path:url(#id4)">
    <image x="9981.12" y="4529.61" width="2409.82" height="2429.77" xlink:href="china_Images\china_ImgID5.png"/>
   </g>
  </g>
  <g id="_2323469987552">
   <polygon class="fil8" points="11252.51,5030.57 11685.12,5572.92 12360.79,5325.58 11951.58,5905.62 12386.38,6446.29 11700.86,6262.43 11293.91,6843.92 11279.45,6150.25 10593.14,5968.96 11269.72,5724.12 "/>
   <polygon class="fil9" points="9866.87,4230.57 10299.48,4772.92 10975.15,4525.58 10565.94,5105.62 11000.74,5646.29 10315.22,5462.43 9908.27,6043.92 9893.81,5350.25 9207.5,5168.96 9884.08,4924.12 "/>
  </g>
  <polygon class="fil3 str0" points="10559.69,4630.57 10992.3,5172.92 11667.97,4925.58 11258.76,5505.62 11693.56,6046.29 11008.04,5862.43 10601.09,6443.92 10586.63,5750.25 9900.32,5568.96 10576.9,5324.12 "/>
  <g id="_2323469986832">
   <g style="clip-path:url(#id5)">
    <image x="1054.15" y="1477.57" width="6799.26" height="6335.63" xlink:href="china_Images\china_ImgID6.png"/>
   </g>
  </g>
  <polygon class="fil3 str0" points="4097.74,1875.82 4717.34,3719.25 6734.34,3715.53 5100.28,4851.11 5727.25,6692.24 4097.74,5550.64 2468.23,6692.24 3095.2,4851.11 1461.14,3715.53 3478.14,3719.25 "/>
 </g>
</svg>
